<mxfile host="app.diagrams.net" modified="2023-07-16T20:43:50.243Z" agent="Mozilla/5.0 (Windows NT 10.0; Win64; x64) AppleWebKit/537.36 (KHTML, like Gecko) Chrome/114.0.0.0 Safari/537.36" version="21.6.2" etag="U9OVQF70TfSUMi-oNFWC" type="github">
  <diagram name="Page-1" id="x2NWb_IqNRDUu8mglVs5">
    <mxGraphModel>
      <root>
        <mxCell id="0" />
        <mxCell id="1" parent="0" />
      </root>
    </mxGraphModel>
  </diagram>
</mxfile>
